PathFileType	4	(X/Y/Z)	/Users/itak/Documents/Research/Walk-IL/dataset/trc/00486_00167.trc
DataRate	CameraRate	NumFrames	NumMarkers	Units	OrigDataRate	OrigDataStartFrame	OrigNumFrames
100.000000	100.000000	4	54	mm	100.000000	0	497
Frame#	Time	RPSI			LPSI			L3			STRN			T10			C7			CLAV			RBAK			LBAK			LSHO			LUPA			LAEL			LAOL			LWTS			LWPS			LFRA			LIFD			LHPS			RSHO			RUPA			RAEL			RAOL			RWTS			RWPS			RFRA			RIFD			RHTS			RHPS			RBHD			LFHD			RFHD			LBHD			LHIP			RHIP			RASI			LASI			LKNE			LTHI			LANK			LTIP			LTOE			LMT1			LMT5			LHEE			RKNE			RTHI			RANK			RTIP			RTOE			RMT1			RMT5			RHEE			LHTS			*53			
		X1	Y1	Z1	X2	Y2	Z2	X3	Y3	Z3	X4	Y4	Z4	X5	Y5	Z5	X6	Y6	Z6	X7	Y7	Z7	X8	Y8	Z8	X9	Y9	Z9	X10	Y10	Z10	X11	Y11	Z11	X12	Y12	Z12	X13	Y13	Z13	X14	Y14	Z14	X15	Y15	Z15	X16	Y16	Z16	X17	Y17	Z17	X18	Y18	Z18	X19	Y19	Z19	X20	Y20	Z20	X21	Y21	Z21	X22	Y22	Z22	X23	Y23	Z23	X24	Y24	Z24	X25	Y25	Z25	X26	Y26	Z26	X27	Y27	Z27	X28	Y28	Z28	X29	Y29	Z29	X30	Y30	Z30	X31	Y31	Z31	X32	Y32	Z32	X33	Y33	Z33	X34	Y34	Z34	X35	Y35	Z35	X36	Y36	Z36	X37	Y37	Z37	X38	Y38	Z38	X39	Y39	Z39	X40	Y40	Z40	X41	Y41	Z41	X42	Y42	Z42	X43	Y43	Z43	X44	Y44	Z44	X45	Y45	Z45	X46	Y46	Z46	X47	Y47	Z47	X48	Y48	Z48	X49	Y49	Z49	X50	Y50	Z50	X51	Y51	Z51	X52	Y52	Z52	X53	Y53	Z53	X54	Y54	Z54	

1	0	-1561.37060546875	971.857177734375	-314.6990051269531	-1490.435913085938	969.4523315429688	-437.0742492675781	-1518.871948242188	1059.906127929688	-356.9828796386719	-1280.554931640625	1258.623779296875	-241.7803649902344	-1532.553344726562	1182.886352539062	-373.56787109375	-1482.107421875	1454.096801757812	-337.3795166015625	-1311.09423828125	1370.790161132812	-263.4221801757812	-1580.2880859375	1334.214477539062	-280.1737060546875	-1464.733764648438	1404.412841796875	-440.21337890625	-1336.08251953125	1424.370239257812	-462.6029357910156	-1298.85888671875	1306.463989257812	-553.953857421875	-1268.796264648438	1090.586791992188	-577.2909545898438	-1370.75439453125	1078.358032226562	-559.9512939453125	-1230.380004882812	882.6683959960938	-505.447998046875	-1240.819580078125	871.4318237304688	-578.3468627929688	-1248.935791015625	1001.942749023438	-578.532958984375	-1233.055786132812	720.3475952148438	-516.4400024414062	-1236.574096679688	793.5091552734375	-577.6640625	-1493.722534179688	1426.157104492188	-163.0125885009766	-1545.234497070312	1367.150268554688	-103.0464401245117	-1568.7177734375	1079.969970703125	-46.63054656982422	-1591.86767578125	1058.904663085938	-106.8599624633789	-1440.374389648438	887.2200317382812	-27.20544242858887	-1523.273803710938	864.53759765625	-6.408912658691406	-1565.623779296875	1022.159729003906	-33.94724273681641	-1422.229248046875	732.75732421875	-12.96680736541748	-1420.643920898438	792.9887084960938	-7.004192352294922	-1496.697875976562	779.331298828125	1.7833651304245	-1459.093872070312	1652.116943359375	-233.8286743164062	-1262.248046875	1673.485595703125	-298.266357421875	-1331.606567382812	1674.346923828125	-186.4552459716797	-1380.609252929688	1653.988037109375	-393.7728881835938	-1313.792846679688	868.0581665039062	-473.4124450683594	-1532.995727539062	863.245361328125	-143.3480072021484	-1408.069458007812	902.2535400390625	-137.6515197753906	-1268.005249023438	903.3094482421875	-355.1235046386719	-1312.154907226562	448.1124572753906	-428.4633178710938	-1286.974243164062	600.4480590820312	-440.8638305664062	-1396.020874023438	46.666015625	-482.614013671875	-1318.41552734375	297.4374694824219	-448.6033020019531	-1243.894775390625	44.41911315917969	-292.8221435546875	-1324.225341796875	49.57371139526367	-312.3002624511719	-1261.13134765625	46.81777954101562	-407.3245239257812	-1468.579223632812	49.58464431762695	-453.8827514648438	-1514.138305664062	471.1669921875	-160.0593719482422	-1506.612182617188	729.7922973632812	-112.1844177246094	-1567.9267578125	39.27168655395508	-185.8246002197266	-1523.563598632812	329.475341796875	-151.8135223388672	-1357.817016601562	48.78405380249023	-112.0838012695312	-1393.896362304688	56.03006362915039	-174.4141540527344	-1468.010620117188	46.99783706665039	-94.12166595458984	-1596.135864257812	32.55373764038086	-260.103271484375	-1214.791748046875	796.1284790039062	-507.8039245605469	nan	nan	nan	
2	0.01	-1561.375610351562	971.8456420898438	-315.0433349609375	-1490.218383789062	969.3717651367188	-437.3642883300781	-1518.76806640625	1059.89208984375	-357.2963562011719	-1280.489990234375	1258.613525390625	-241.9888153076172	-1532.42724609375	1182.867797851562	-373.8812866210938	-1482.036376953125	1454.065673828125	-337.6875305175781	-1310.985473632812	1370.803955078125	-263.7177734375	-1580.201293945312	1334.177368164062	-280.5283813476562	-1464.637451171875	1404.466430664062	-440.5727844238281	-1335.9873046875	1424.422241210938	-462.8969421386719	-1298.613525390625	1306.549194335938	-554.23046875	-1268.267333984375	1090.666748046875	-577.5723266601562	-1370.214477539062	1078.32080078125	-560.3359375	-1229.5595703125	882.920654296875	-505.4444274902344	-1239.929809570312	871.5884399414062	-578.35302734375	-1248.179077148438	1002.070556640625	-578.6725463867188	-1231.848022460938	720.6849975585938	-516.2845458984375	-1235.373413085938	793.6416015625	-577.48876953125	-1493.682983398438	1426.100463867188	-163.2640991210938	-1545.1884765625	1367.029907226562	-103.3286972045898	-1568.632568359375	1079.777221679688	-47.24692153930664	-1591.83203125	1058.885131835938	-107.5399780273438	-1440.732055664062	886.7395629882812	-28.29433822631836	-1523.682250976562	864.1666870117188	-7.435481071472168	-1565.642944335938	1021.950256347656	-34.677001953125	-1422.837280273438	732.2998046875	-14.22940349578857	-1421.141967773438	792.4678344726562	-8.308170318603516	-1497.231567382812	778.9281616210938	0.5957334637641907	-1458.993408203125	1652.159545898438	-234.05419921875	-1262.156860351562	1673.41845703125	-298.530517578125	-1331.452880859375	1674.33251953125	-186.6913909912109	-1380.574829101562	1653.969482421875	-393.9867858886719	-1313.597900390625	868.0679931640625	-473.5882873535156	-1533.193115234375	863.305908203125	-143.6322174072266	-1408.426513671875	902.25048828125	-137.9136199951172	-1267.963012695312	903.1884765625	-355.16748046875	-1312.436889648438	448.128662109375	-428.7919006347656	-1287.143798828125	600.4481201171875	-441.1376037597656	-1395.9775390625	46.57928848266602	-482.7157287597656	-1318.59033203125	297.5116882324219	-448.7209167480469	-1243.961059570312	44.46819686889648	-292.9037170410156	-1324.30322265625	49.58184814453125	-312.3565368652344	-1261.187133789062	46.83727264404297	-407.3700256347656	-1468.5390625	49.44047546386719	-454.0482788085938	-1514.229125976562	471.2008056640625	-160.1674499511719	-1506.854125976562	729.8695068359375	-112.3634948730469	-1567.919311523438	39.27776336669922	-185.8365325927734	-1523.614135742188	329.5221557617188	-151.8560638427734	-1357.831787109375	48.79438400268555	-112.049072265625	-1393.898803710938	56.03166198730469	-174.4058227539062	-1467.999877929688	46.99749374389648	-94.12643432617188	-1596.122192382812	32.56652069091797	-260.1034545898438	-1213.868774414062	796.4251098632812	-507.6613159179688	nan	nan	nan	
3	0.02	-1561.369262695312	971.8347778320312	-315.4891357421875	-1489.966064453125	969.3018188476562	-437.7233276367188	-1518.62744140625	1059.877075195312	-357.707275390625	-1280.400512695312	1258.603759765625	-242.2588653564453	-1532.260498046875	1182.848754882812	-374.2879333496094	-1481.954345703125	1454.021728515625	-338.0679016113281	-1310.856201171875	1370.822021484375	-264.0828247070312	-1580.098510742188	1334.127563476562	-280.9615478515625	-1464.498046875	1404.512817382812	-440.9955139160156	-1335.880126953125	1424.491333007812	-463.2474365234375	-1298.299682617188	1306.660400390625	-554.5759887695312	-1267.585571289062	1090.769653320312	-577.9043579101562	-1369.539184570312	1078.289184570312	-560.8024291992188	-1228.517822265625	883.2653198242188	-505.4033813476562	-1238.777221679688	871.7960815429688	-578.3267822265625	-1247.232666015625	1002.237426757812	-578.828125	-1230.239501953125	721.0914916992188	-516.0067749023438	-1233.853759765625	793.8190307617188	-577.2482299804688	-1493.63037109375	1426.03125	-163.5858612060547	-1545.123291015625	1366.885620117188	-103.6755752563477	-1568.530395507812	1079.543212890625	-48.00398635864258	-1591.7998046875	1058.860961914062	-108.3678283691406	-1441.209594726562	886.1312866210938	-29.62211799621582	-1524.216186523438	863.71337890625	-8.714670181274414	-1565.679443359375	1021.698486328125	-35.57656860351562	-1423.66162109375	731.6927490234375	-15.8057861328125	-1421.813842773438	791.7942504882812	-9.903959274291992	-1497.954956054688	778.426025390625	-0.8711857199668884	-1458.841064453125	1652.21630859375	-234.3169860839844	-1262.000122070312	1673.312866210938	-298.8668823242188	-1331.238159179688	1674.293701171875	-186.9863739013672	-1380.521240234375	1653.970825195312	-394.257568359375	-1313.353881835938	868.0797119140625	-473.8164672851562	-1533.4345703125	863.3831787109375	-143.9807586669922	-1408.851440429688	902.2490844726562	-138.2327728271484	-1267.908203125	903.053466796875	-355.2213439941406	-1312.810668945312	448.1441345214844	-429.2266845703125	-1287.34716796875	600.455322265625	-441.4727478027344	-1395.9287109375	46.46326065063477	-482.8598022460938	-1318.812622070312	297.5841979980469	-448.869384765625	-1244.060668945312	44.54441070556641	-293.004638671875	-1324.4169921875	49.60632705688477	-312.4308776855469	-1261.268310546875	46.87003326416016	-407.4169311523438	-1468.509033203125	49.27800750732422	-454.2691345214844	-1514.3232421875	471.245849609375	-160.2959136962891	-1507.154907226562	729.9672241210938	-112.5671157836914	-1567.906005859375	39.28716659545898	-185.8502197265625	-1523.664184570312	329.5795593261719	-151.9119262695312	-1357.851684570312	48.80952072143555	-112.0030364990234	-1393.900268554688	56.03541564941406	-174.3963775634766	-1467.989990234375	46.99602890014648	-94.13082122802734	-1596.104614257812	32.58404159545898	-260.1046752929688	-1212.669799804688	796.8080444335938	-507.4397583007812	nan	nan	nan	
4	0.03	-1561.34716796875	971.8276977539062	-316.0210876464844	-1489.690185546875	969.2553100585938	-438.1369934082031	-1518.453369140625	1059.862548828125	-358.2012023925781	-1280.287841796875	1258.59716796875	-242.5806427001953	-1532.059814453125	1182.831298828125	-374.7733459472656	-1481.867919921875	1453.966064453125	-338.5013122558594	-1310.716430664062	1370.84375	-264.4955139160156	-1579.986083984375	1334.066162109375	-281.4503479003906	-1464.317260742188	1404.5419921875	-441.4513244628906	-1335.769165039062	1424.575073242188	-463.6310424804688	-1297.929321289062	1306.795166015625	-554.9730834960938	-1266.773681640625	1090.892822265625	-578.2633056640625	-1368.75927734375	1078.26806640625	-561.3235473632812	-1227.290649414062	883.6981811523438	-505.3103332519531	-1237.395385742188	872.0505981445312	-578.2508544921875	-1246.136474609375	1002.440185546875	-578.982666015625	-1228.2802734375	721.5466918945312	-515.5931396484375	-1232.06884765625	794.0372314453125	-576.937255859375	-1493.5673828125	1425.953369140625	-163.9668884277344	-1545.041259765625	1366.7265625	-104.0686950683594	-1568.419799804688	1079.282592773438	-48.86125183105469	-1591.776000976562	1058.835571289062	-109.2998809814453	-1441.797607421875	885.4158325195312	-31.11647033691406	-1524.865356445312	863.2024536132812	-10.18558883666992	-1565.738403320312	1021.420104980469	-36.60039901733398	-1424.69873046875	730.94677734375	-17.62405014038086	-1422.655883789062	790.9884033203125	-11.70386123657227	-1498.8642578125	777.8484497070312	-2.543615102767944	-1458.629638671875	1652.287353515625	-234.59423828125	-1261.769775390625	1673.163330078125	-299.2624206542969	-1330.955932617188	1674.220825195312	-187.3258666992188	-1380.445556640625	1654.003051757812	-394.5733947753906	-1313.069213867188	868.0916137695312	-474.0895080566406	-1533.704956054688	863.4744873046875	-144.3765411376953	-1409.312133789062	902.2520751953125	-138.5928344726562	-1267.843017578125	902.9178466796875	-355.2835083007812	-1313.259887695312	448.1567687988281	-429.7546081542969	-1287.566650390625	600.4728393554688	-441.8474426269531	-1395.879638671875	46.31901931762695	-483.048095703125	-1319.071899414062	297.6414794921875	-449.0458679199219	-1244.195190429688	44.65104675292969	-293.1209716796875	-1324.568725585938	49.65190887451172	-312.5218200683594	-1261.3759765625	46.91747665405273	-407.4596862792969	-1468.499633789062	49.11560821533203	-454.5420837402344	-1514.405395507812	471.301025390625	-160.4365692138672	-1507.493408203125	730.0802001953125	-112.7834014892578	-1567.88623046875	39.30048751831055	-185.8644409179688	-1523.703979492188	329.6430969238281	-151.9792938232422	-1357.87646484375	48.82958602905273	-111.9472274780273	-1393.900024414062	56.04069900512695	-174.3866424560547	-1467.982055664062	46.99379348754883	-94.13447570800781	-1596.083129882812	32.60581970214844	-260.1074523925781	-1211.217529296875	797.2715454101562	-507.1259155273438	nan	nan	nan	
